<svg width="2785" height="248" viewBox="0 0 2785 248" fill="none" xmlns="http://www.w3.org/2000/svg">
<g filter="url(#filter0_f_3_115)">
<path d="M38.6829 201.989V171.307H45.7852C49.9518 171.307 53.2425 170.975 55.6573 170.312C58.1194 169.602 60.0134 168.371 61.3391 166.619C62.7122 164.82 63.8723 162.311 64.8192 159.091L66.2397 154.83L11.6942 54.5455H52.0352L82.4329 113.636L105.728 54.5455H145.501L95.5011 168.182C92.7549 174.148 89.4878 179.711 85.6999 184.872C81.9121 189.986 77.2009 194.129 71.5664 197.301C65.9319 200.426 58.948 201.989 50.6147 201.989H38.6829ZM167.092 54.5455H205.16V100.284C205.16 104.83 205.941 108.546 207.504 111.435C209.114 114.323 211.789 116.454 215.529 117.827C219.317 119.2 224.478 119.886 231.012 119.886C232.196 119.886 234.114 119.863 236.765 119.815C239.464 119.721 242.376 119.602 245.501 119.46C248.626 119.271 251.491 119.058 254.095 118.821C256.746 118.537 258.617 118.229 259.706 117.898V147.727C258.475 148.153 256.439 148.532 253.598 148.864C250.757 149.148 247.703 149.408 244.436 149.645C241.216 149.834 238.328 150 235.771 150.142C233.214 150.237 231.628 150.284 231.012 150.284C218.228 150.284 207.03 148.461 197.419 144.815C187.807 141.17 180.35 135.653 175.047 128.267C169.743 120.881 167.092 111.553 167.092 100.284V54.5455ZM252.319 54.5455H290.672V200H252.319V54.5455ZM355.64 200H313.026L361.037 54.5455H415.015L463.026 200H420.412L388.594 94.6023H387.458L355.64 200ZM347.685 142.614H427.799V172.159H347.685V142.614ZM605.995 109.091H565.938C565.654 105.777 564.896 102.77 563.665 100.071C562.481 97.3722 560.824 95.0521 558.694 93.1108C556.61 91.1222 554.077 89.607 551.094 88.5653C548.111 87.4763 544.726 86.9318 540.938 86.9318C534.309 86.9318 528.698 88.5417 524.105 91.7614C519.56 94.9811 516.104 99.5975 513.736 105.611C511.416 111.624 510.256 118.845 510.256 127.273C510.256 136.174 511.44 143.632 513.807 149.645C516.222 155.611 519.702 160.109 524.248 163.139C528.793 166.122 534.262 167.614 540.654 167.614C544.3 167.614 547.567 167.164 550.455 166.264C553.343 165.317 555.853 163.968 557.983 162.216C560.114 160.464 561.842 158.357 563.168 155.895C564.541 153.385 565.464 150.568 565.938 147.443L605.995 147.727C605.521 153.883 603.793 160.156 600.81 166.548C597.827 172.893 593.589 178.764 588.097 184.162C582.652 189.512 575.905 193.821 567.855 197.088C559.806 200.355 550.455 201.989 539.801 201.989C526.449 201.989 514.47 199.124 503.864 193.395C493.305 187.666 484.948 179.238 478.793 168.111C472.685 156.984 469.631 143.371 469.631 127.273C469.631 111.08 472.756 97.4432 479.006 86.3636C485.256 75.2367 493.684 66.8324 504.29 61.1506C514.896 55.4214 526.733 52.5568 539.801 52.5568C548.987 52.5568 557.439 53.8115 565.157 56.321C572.874 58.8305 579.645 62.5 585.469 67.3295C591.293 72.1117 595.98 78.0066 599.532 85.0142C603.083 92.0218 605.237 100.047 605.995 109.091ZM619.933 86.3636V54.5455H746.353V86.3636H702.603V200H663.683V86.3636H619.933ZM761.215 200V54.5455H824.283C835.363 54.5455 844.667 56.0369 852.195 59.0199C859.771 62.0028 865.476 66.2169 869.311 71.6619C873.194 77.107 875.135 83.5227 875.135 90.9091C875.135 96.2595 873.952 101.136 871.584 105.54C869.264 109.943 865.997 113.636 861.783 116.619C857.569 119.555 852.645 121.591 847.01 122.727V124.148C853.26 124.384 858.942 125.971 864.056 128.906C869.169 131.795 873.241 135.795 876.272 140.909C879.302 145.975 880.817 151.941 880.817 158.807C880.817 166.761 878.734 173.84 874.567 180.043C870.448 186.245 864.577 191.122 856.953 194.673C849.33 198.224 840.239 200 829.681 200H761.215ZM800.703 168.466H819.169C825.798 168.466 830.77 167.235 834.084 164.773C837.399 162.263 839.056 158.57 839.056 153.693C839.056 150.284 838.275 147.396 836.712 145.028C835.15 142.661 832.924 140.862 830.036 139.631C827.195 138.4 823.762 137.784 819.738 137.784H800.703V168.466ZM800.703 113.352H816.897C820.353 113.352 823.407 112.808 826.059 111.719C828.71 110.63 830.77 109.067 832.238 107.031C833.753 104.948 834.51 102.415 834.51 99.4318C834.51 94.9337 832.9 91.5009 829.681 89.1335C826.461 86.7188 822.389 85.5114 817.465 85.5114H800.703V113.352ZM915.831 201.989V171.307H922.934C927.1 171.307 930.391 170.975 932.806 170.312C935.268 169.602 937.162 168.371 938.488 166.619C939.861 164.82 941.021 162.311 941.968 159.091L943.388 154.83L888.843 54.5455H929.184L959.581 113.636L982.877 54.5455H1022.65L972.65 168.182C969.903 174.148 966.636 179.711 962.848 184.872C959.06 189.986 954.349 194.129 948.715 197.301C943.08 200.426 936.096 201.989 927.763 201.989H915.831ZM1035.43 54.5455H1074.92V130.682H1076.06L1127.76 54.5455H1161.29V200H1121.8V123.58H1120.94L1068.39 200H1035.43V54.5455ZM1112.71 15.3409H1137.42C1137.37 24.5739 1133.85 31.9602 1126.84 37.5C1119.83 42.9924 1110.39 45.7386 1098.5 45.7386C1086.52 45.7386 1077.03 42.9924 1070.02 37.5C1063.01 31.9602 1059.53 24.5739 1059.58 15.3409H1084.01C1083.97 18.3239 1085.03 21.0701 1087.21 23.5795C1089.43 26.0417 1093.2 27.2727 1098.5 27.2727C1103.57 27.2727 1107.19 26.0653 1109.37 23.6506C1111.55 21.2358 1112.66 18.4659 1112.71 15.3409ZM1219.81 200V54.5455H1282.88C1293.96 54.5455 1303.26 56.0369 1310.79 59.0199C1318.36 62.0028 1324.07 66.2169 1327.91 71.6619C1331.79 77.107 1333.73 83.5227 1333.73 90.9091C1333.73 96.2595 1332.55 101.136 1330.18 105.54C1327.86 109.943 1324.59 113.636 1320.38 116.619C1316.16 119.555 1311.24 121.591 1305.6 122.727V124.148C1311.85 124.384 1317.54 125.971 1322.65 128.906C1327.76 131.795 1331.84 135.795 1334.87 140.909C1337.9 145.975 1339.41 151.941 1339.41 158.807C1339.41 166.761 1337.33 173.84 1333.16 180.043C1329.04 186.245 1323.17 191.122 1315.55 194.673C1307.92 198.224 1298.83 200 1288.27 200H1219.81ZM1259.3 168.466H1277.76C1284.39 168.466 1289.36 167.235 1292.68 164.773C1295.99 162.263 1297.65 158.57 1297.65 153.693C1297.65 150.284 1296.87 147.396 1295.31 145.028C1293.74 142.661 1291.52 140.862 1288.63 139.631C1285.79 138.4 1282.36 137.784 1278.33 137.784H1259.3V168.466ZM1259.3 113.352H1275.49C1278.95 113.352 1282 112.808 1284.65 111.719C1287.3 110.63 1289.36 109.067 1290.83 107.031C1292.35 104.948 1293.1 102.415 1293.1 99.4318C1293.1 94.9337 1291.49 91.5009 1288.27 89.1335C1285.05 86.7188 1280.98 85.5114 1276.06 85.5114H1259.3V113.352ZM1393.25 200V54.5455H1456.03C1466.83 54.5455 1476.27 56.6761 1484.37 60.9375C1492.46 65.1989 1498.76 71.1884 1503.26 78.9062C1507.76 86.6241 1510.01 95.6439 1510.01 105.966C1510.01 116.383 1507.69 125.402 1503.05 133.026C1498.45 140.649 1491.99 146.52 1483.66 150.639C1475.37 154.759 1465.69 156.818 1454.61 156.818H1417.11V126.136H1446.66C1451.3 126.136 1455.25 125.331 1458.52 123.722C1461.83 122.064 1464.36 119.721 1466.12 116.69C1467.91 113.66 1468.81 110.085 1468.81 105.966C1468.81 101.799 1467.91 98.2481 1466.12 95.3125C1464.36 92.3295 1461.83 90.0568 1458.52 88.4943C1455.25 86.8845 1451.3 86.0795 1446.66 86.0795H1432.73V200H1393.25ZM1665.41 127.273C1665.41 143.466 1662.26 157.126 1655.96 168.253C1649.66 179.332 1641.16 187.737 1630.46 193.466C1619.76 199.148 1607.83 201.989 1594.67 201.989C1581.41 201.989 1569.43 199.124 1558.73 193.395C1548.08 187.618 1539.6 179.19 1533.3 168.111C1527.05 156.984 1523.93 143.371 1523.93 127.273C1523.93 111.08 1527.05 97.4432 1533.3 86.3636C1539.6 75.2367 1548.08 66.8324 1558.73 61.1506C1569.43 55.4214 1581.41 52.5568 1594.67 52.5568C1607.83 52.5568 1619.76 55.4214 1630.46 61.1506C1641.16 66.8324 1649.66 75.2367 1655.96 86.3636C1662.26 97.4432 1665.41 111.08 1665.41 127.273ZM1624.78 127.273C1624.78 118.561 1623.62 111.222 1621.3 105.256C1619.03 99.2424 1615.64 94.697 1611.14 91.6193C1606.69 88.4943 1601.2 86.9318 1594.67 86.9318C1588.13 86.9318 1582.62 88.4943 1578.12 91.6193C1573.67 94.697 1570.28 99.2424 1567.96 105.256C1565.69 111.222 1564.55 118.561 1564.55 127.273C1564.55 135.985 1565.69 143.348 1567.96 149.361C1570.28 155.327 1573.67 159.872 1578.12 162.997C1582.62 166.075 1588.13 167.614 1594.67 167.614C1601.2 167.614 1606.69 166.075 1611.14 162.997C1615.64 159.872 1619.03 155.327 1621.3 149.361C1623.62 143.348 1624.78 135.985 1624.78 127.273ZM1740.78 201.989C1729.32 201.989 1719.14 200.024 1710.24 196.094C1701.38 192.116 1694.42 186.648 1689.36 179.688C1684.29 172.727 1681.73 164.725 1681.69 155.682H1721.46C1721.51 158.475 1722.36 160.985 1724.02 163.21C1725.72 165.388 1728.04 167.093 1730.98 168.324C1733.91 169.555 1737.27 170.17 1741.06 170.17C1744.71 170.17 1747.93 169.531 1750.72 168.253C1753.51 166.927 1755.69 165.104 1757.26 162.784C1758.82 160.464 1759.58 157.812 1759.53 154.83C1759.58 151.894 1758.68 149.29 1756.83 147.017C1755.03 144.744 1752.5 142.969 1749.23 141.69C1745.96 140.412 1742.2 139.773 1737.94 139.773H1723.16V112.5H1737.94C1741.87 112.5 1745.32 111.861 1748.31 110.582C1751.34 109.304 1753.68 107.528 1755.34 105.256C1757.04 102.983 1757.87 100.379 1757.82 97.4432C1757.87 94.6023 1757.18 92.0928 1755.76 89.9148C1754.34 87.7367 1752.35 86.0322 1749.8 84.8011C1747.29 83.5701 1744.38 82.9545 1741.06 82.9545C1737.46 82.9545 1734.24 83.5937 1731.4 84.8722C1728.61 86.1506 1726.41 87.9261 1724.8 90.1989C1723.19 92.4716 1722.36 95.0758 1722.31 98.0114H1684.53C1684.58 89.1098 1687.01 81.25 1691.84 74.4318C1696.72 67.6136 1703.4 62.2633 1711.87 58.3807C1720.35 54.4981 1730.08 52.5568 1741.06 52.5568C1751.81 52.5568 1761.3 54.3797 1769.54 58.0256C1777.83 61.6714 1784.29 66.6903 1788.93 73.0824C1793.62 79.4271 1795.94 86.6951 1795.89 94.8864C1795.99 103.03 1793.19 109.706 1787.51 114.915C1781.88 120.123 1774.73 123.201 1766.06 124.148V125.284C1777.8 126.562 1786.64 130.161 1792.55 136.08C1798.47 141.951 1801.38 149.337 1801.29 158.239C1801.34 166.761 1798.78 174.313 1793.62 180.895C1788.51 187.476 1781.38 192.637 1772.24 196.378C1763.15 200.118 1752.66 201.989 1740.78 201.989ZM1843.64 103.409H1873.75C1886.01 103.409 1896.71 105.374 1905.85 109.304C1915.04 113.234 1922.16 118.774 1927.23 125.923C1932.34 133.073 1934.88 141.477 1934.83 151.136C1934.88 160.795 1932.34 169.295 1927.23 176.634C1922.16 183.973 1915.04 189.702 1905.85 193.821C1896.71 197.94 1886.01 200 1873.75 200H1819.49V54.5455H1858.98V169.034H1873.75C1878.53 169.034 1882.53 168.253 1885.75 166.69C1889.02 165.128 1891.48 162.973 1893.14 160.227C1894.84 157.481 1895.67 154.356 1895.63 150.852C1895.67 145.881 1893.83 141.761 1890.09 138.494C1886.35 135.18 1880.9 133.523 1873.75 133.523H1843.64V103.409ZM1984.55 54.5455V200H1945.06V54.5455H1984.55ZM2105.48 54.5455V86.3636H2042.7V200H2003.21V54.5455H2105.48ZM2120.2 200V54.5455H2182.98C2193.78 54.5455 2203.22 56.6761 2211.32 60.9375C2219.42 65.1989 2225.72 71.1884 2230.21 78.9062C2234.71 86.6241 2236.96 95.6439 2236.96 105.966C2236.96 116.383 2234.64 125.402 2230 133.026C2225.41 140.649 2218.94 146.52 2210.61 150.639C2202.33 154.759 2192.64 156.818 2181.56 156.818H2144.06V126.136H2173.61C2178.25 126.136 2182.2 125.331 2185.47 123.722C2188.78 122.064 2191.32 119.721 2193.07 116.69C2194.87 113.66 2195.77 110.085 2195.77 105.966C2195.77 101.799 2194.87 98.2481 2193.07 95.3125C2191.32 92.3295 2188.78 90.0568 2185.47 88.4943C2182.2 86.8845 2178.25 86.0795 2173.61 86.0795H2159.69V200H2120.2ZM2276.45 103.409H2306.56C2318.83 103.409 2329.53 105.374 2338.67 109.304C2347.85 113.234 2354.98 118.774 2360.04 125.923C2365.16 133.073 2367.69 141.477 2367.64 151.136C2367.69 160.795 2365.16 169.295 2360.04 176.634C2354.98 183.973 2347.85 189.702 2338.67 193.821C2329.53 197.94 2318.83 200 2306.56 200H2252.3V54.5455H2291.79V169.034H2306.56C2311.35 169.034 2315.35 168.253 2318.57 166.69C2321.83 165.128 2324.29 162.973 2325.95 160.227C2327.66 157.481 2328.49 154.356 2328.44 150.852C2328.49 145.881 2326.64 141.761 2322.9 138.494C2319.16 135.18 2313.71 133.523 2306.56 133.523H2276.45V103.409ZM2417.36 54.5455V200H2377.87V54.5455H2417.36ZM2445.68 54.5455H2484.03V169.602H2519.54V54.5455H2557.61V169.602H2592.27V54.5455H2630.34V200H2445.68V54.5455ZM2658.68 200V54.5455H2763.51V86.3636H2698.16V111.364H2758.11V143.182H2698.16V168.182H2763.22V200H2658.68Z" fill="#474747"/>
</g>
<g filter="url(#filter1_d_3_115)">
<path d="M38.6829 195.989V165.307H45.7852C49.9518 165.307 53.2425 164.975 55.6573 164.312C58.1194 163.602 60.0134 162.371 61.3391 160.619C62.7122 158.82 63.8723 156.311 64.8192 153.091L66.2397 148.83L11.6942 48.5455H52.0352L82.4329 107.636L105.728 48.5455H145.501L95.5011 162.182C92.7549 168.148 89.4878 173.711 85.6999 178.872C81.9121 183.986 77.2009 188.129 71.5664 191.301C65.9319 194.426 58.948 195.989 50.6147 195.989H38.6829ZM167.092 48.5455H205.16V94.2841C205.16 98.8295 205.941 102.546 207.504 105.435C209.114 108.323 211.789 110.454 215.529 111.827C219.317 113.2 224.478 113.886 231.012 113.886C232.196 113.886 234.114 113.863 236.765 113.815C239.464 113.721 242.376 113.602 245.501 113.46C248.626 113.271 251.491 113.058 254.095 112.821C256.746 112.537 258.617 112.229 259.706 111.898V141.727C258.475 142.153 256.439 142.532 253.598 142.864C250.757 143.148 247.703 143.408 244.436 143.645C241.216 143.834 238.328 144 235.771 144.142C233.214 144.237 231.628 144.284 231.012 144.284C218.228 144.284 207.03 142.461 197.419 138.815C187.807 135.17 180.35 129.653 175.047 122.267C169.743 114.881 167.092 105.553 167.092 94.2841V48.5455ZM252.319 48.5455H290.672V194H252.319V48.5455ZM355.64 194H313.026L361.037 48.5455H415.015L463.026 194H420.412L388.594 88.6023H387.458L355.64 194ZM347.685 136.614H427.799V166.159H347.685V136.614ZM605.995 103.091H565.938C565.654 99.7765 564.896 96.7699 563.665 94.071C562.481 91.3722 560.824 89.0521 558.694 87.1108C556.61 85.1222 554.077 83.607 551.094 82.5653C548.111 81.4763 544.726 80.9318 540.938 80.9318C534.309 80.9318 528.698 82.5417 524.105 85.7614C519.56 88.9811 516.104 93.5975 513.736 99.6108C511.416 105.624 510.256 112.845 510.256 121.273C510.256 130.174 511.44 137.632 513.807 143.645C516.222 149.611 519.702 154.109 524.248 157.139C528.793 160.122 534.262 161.614 540.654 161.614C544.3 161.614 547.567 161.164 550.455 160.264C553.343 159.317 555.853 157.968 557.983 156.216C560.114 154.464 561.842 152.357 563.168 149.895C564.541 147.385 565.464 144.568 565.938 141.443L605.995 141.727C605.521 147.883 603.793 154.156 600.81 160.548C597.827 166.893 593.589 172.764 588.097 178.162C582.652 183.512 575.905 187.821 567.855 191.088C559.806 194.355 550.455 195.989 539.801 195.989C526.449 195.989 514.47 193.124 503.864 187.395C493.305 181.666 484.948 173.238 478.793 162.111C472.685 150.984 469.631 137.371 469.631 121.273C469.631 105.08 472.756 91.4432 479.006 80.3636C485.256 69.2367 493.684 60.8324 504.29 55.1506C514.896 49.4214 526.733 46.5568 539.801 46.5568C548.987 46.5568 557.439 47.8115 565.157 50.321C572.874 52.8305 579.645 56.5 585.469 61.3295C591.293 66.1117 595.98 72.0066 599.532 79.0142C603.083 86.0218 605.237 94.0473 605.995 103.091ZM619.933 80.3636V48.5455H746.353V80.3636H702.603V194H663.683V80.3636H619.933ZM761.215 194V48.5455H824.283C835.363 48.5455 844.667 50.0369 852.195 53.0199C859.771 56.0028 865.476 60.2169 869.311 65.6619C873.194 71.107 875.135 77.5227 875.135 84.9091C875.135 90.2595 873.952 95.1364 871.584 99.5398C869.264 103.943 865.997 107.636 861.783 110.619C857.569 113.555 852.645 115.591 847.01 116.727V118.148C853.26 118.384 858.942 119.971 864.056 122.906C869.169 125.795 873.241 129.795 876.272 134.909C879.302 139.975 880.817 145.941 880.817 152.807C880.817 160.761 878.734 167.84 874.567 174.043C870.448 180.245 864.577 185.122 856.953 188.673C849.33 192.224 840.239 194 829.681 194H761.215ZM800.703 162.466H819.169C825.798 162.466 830.77 161.235 834.084 158.773C837.399 156.263 839.056 152.57 839.056 147.693C839.056 144.284 838.275 141.396 836.712 139.028C835.15 136.661 832.924 134.862 830.036 133.631C827.195 132.4 823.762 131.784 819.738 131.784H800.703V162.466ZM800.703 107.352H816.897C820.353 107.352 823.407 106.808 826.059 105.719C828.71 104.63 830.77 103.067 832.238 101.031C833.753 98.9479 834.51 96.4148 834.51 93.4318C834.51 88.9337 832.9 85.5009 829.681 83.1335C826.461 80.7188 822.389 79.5114 817.465 79.5114H800.703V107.352ZM915.831 195.989V165.307H922.934C927.1 165.307 930.391 164.975 932.806 164.312C935.268 163.602 937.162 162.371 938.488 160.619C939.861 158.82 941.021 156.311 941.968 153.091L943.388 148.83L888.843 48.5455H929.184L959.581 107.636L982.877 48.5455H1022.65L972.65 162.182C969.903 168.148 966.636 173.711 962.848 178.872C959.06 183.986 954.349 188.129 948.715 191.301C943.08 194.426 936.096 195.989 927.763 195.989H915.831ZM1035.43 48.5455H1074.92V124.682H1076.06L1127.76 48.5455H1161.29V194H1121.8V117.58H1120.94L1068.39 194H1035.43V48.5455ZM1112.71 9.3409H1137.42C1137.37 18.5739 1133.85 25.9602 1126.84 31.5C1119.83 36.9924 1110.39 39.7386 1098.5 39.7386C1086.52 39.7386 1077.03 36.9924 1070.02 31.5C1063.01 25.9602 1059.53 18.5739 1059.58 9.3409H1084.01C1083.97 12.3239 1085.03 15.0701 1087.21 17.5795C1089.43 20.0417 1093.2 21.2727 1098.5 21.2727C1103.57 21.2727 1107.19 20.0653 1109.37 17.6506C1111.55 15.2358 1112.66 12.4659 1112.71 9.3409ZM1219.81 194V48.5455H1282.88C1293.96 48.5455 1303.26 50.0369 1310.79 53.0199C1318.36 56.0028 1324.07 60.2169 1327.91 65.6619C1331.79 71.107 1333.73 77.5227 1333.73 84.9091C1333.73 90.2595 1332.55 95.1364 1330.18 99.5398C1327.86 103.943 1324.59 107.636 1320.38 110.619C1316.16 113.555 1311.24 115.591 1305.6 116.727V118.148C1311.85 118.384 1317.54 119.971 1322.65 122.906C1327.76 125.795 1331.84 129.795 1334.87 134.909C1337.9 139.975 1339.41 145.941 1339.41 152.807C1339.41 160.761 1337.33 167.84 1333.16 174.043C1329.04 180.245 1323.17 185.122 1315.55 188.673C1307.92 192.224 1298.83 194 1288.27 194H1219.81ZM1259.3 162.466H1277.76C1284.39 162.466 1289.36 161.235 1292.68 158.773C1295.99 156.263 1297.65 152.57 1297.65 147.693C1297.65 144.284 1296.87 141.396 1295.31 139.028C1293.74 136.661 1291.52 134.862 1288.63 133.631C1285.79 132.4 1282.36 131.784 1278.33 131.784H1259.3V162.466ZM1259.3 107.352H1275.49C1278.95 107.352 1282 106.808 1284.65 105.719C1287.3 104.63 1289.36 103.067 1290.83 101.031C1292.35 98.9479 1293.1 96.4148 1293.1 93.4318C1293.1 88.9337 1291.49 85.5009 1288.27 83.1335C1285.05 80.7188 1280.98 79.5114 1276.06 79.5114H1259.3V107.352ZM1393.25 194V48.5455H1456.03C1466.83 48.5455 1476.27 50.6761 1484.37 54.9375C1492.46 59.1989 1498.76 65.1884 1503.26 72.9062C1507.76 80.6241 1510.01 89.6439 1510.01 99.9659C1510.01 110.383 1507.69 119.402 1503.05 127.026C1498.45 134.649 1491.99 140.52 1483.66 144.639C1475.37 148.759 1465.69 150.818 1454.61 150.818H1417.11V120.136H1446.66C1451.3 120.136 1455.25 119.331 1458.52 117.722C1461.83 116.064 1464.36 113.721 1466.12 110.69C1467.91 107.66 1468.81 104.085 1468.81 99.9659C1468.81 95.7992 1467.91 92.2481 1466.12 89.3125C1464.36 86.3295 1461.83 84.0568 1458.52 82.4943C1455.25 80.8845 1451.3 80.0795 1446.66 80.0795H1432.73V194H1393.25ZM1665.41 121.273C1665.41 137.466 1662.26 151.126 1655.96 162.253C1649.66 173.332 1641.16 181.737 1630.46 187.466C1619.76 193.148 1607.83 195.989 1594.67 195.989C1581.41 195.989 1569.43 193.124 1558.73 187.395C1548.08 181.618 1539.6 173.19 1533.3 162.111C1527.05 150.984 1523.93 137.371 1523.93 121.273C1523.93 105.08 1527.05 91.4432 1533.3 80.3636C1539.6 69.2367 1548.08 60.8324 1558.73 55.1506C1569.43 49.4214 1581.41 46.5568 1594.67 46.5568C1607.83 46.5568 1619.76 49.4214 1630.46 55.1506C1641.16 60.8324 1649.66 69.2367 1655.96 80.3636C1662.26 91.4432 1665.41 105.08 1665.41 121.273ZM1624.78 121.273C1624.78 112.561 1623.62 105.222 1621.3 99.2557C1619.03 93.2424 1615.64 88.697 1611.14 85.6193C1606.69 82.4943 1601.2 80.9318 1594.67 80.9318C1588.13 80.9318 1582.62 82.4943 1578.12 85.6193C1573.67 88.697 1570.28 93.2424 1567.96 99.2557C1565.69 105.222 1564.55 112.561 1564.55 121.273C1564.55 129.985 1565.69 137.348 1567.96 143.361C1570.28 149.327 1573.67 153.872 1578.12 156.997C1582.62 160.075 1588.13 161.614 1594.67 161.614C1601.2 161.614 1606.69 160.075 1611.14 156.997C1615.64 153.872 1619.03 149.327 1621.3 143.361C1623.62 137.348 1624.78 129.985 1624.78 121.273ZM1740.78 195.989C1729.32 195.989 1719.14 194.024 1710.24 190.094C1701.38 186.116 1694.42 180.648 1689.36 173.688C1684.29 166.727 1681.73 158.725 1681.69 149.682H1721.46C1721.51 152.475 1722.36 154.985 1724.02 157.21C1725.72 159.388 1728.04 161.093 1730.98 162.324C1733.91 163.555 1737.27 164.17 1741.06 164.17C1744.71 164.17 1747.93 163.531 1750.72 162.253C1753.51 160.927 1755.69 159.104 1757.26 156.784C1758.82 154.464 1759.58 151.812 1759.53 148.83C1759.58 145.894 1758.68 143.29 1756.83 141.017C1755.03 138.744 1752.5 136.969 1749.23 135.69C1745.96 134.412 1742.2 133.773 1737.94 133.773H1723.16V106.5H1737.94C1741.87 106.5 1745.32 105.861 1748.31 104.582C1751.34 103.304 1753.68 101.528 1755.34 99.2557C1757.04 96.983 1757.87 94.3788 1757.82 91.4432C1757.87 88.6023 1757.18 86.0928 1755.76 83.9148C1754.34 81.7367 1752.35 80.0322 1749.8 78.8011C1747.29 77.5701 1744.38 76.9545 1741.06 76.9545C1737.46 76.9545 1734.24 77.5937 1731.4 78.8722C1728.61 80.1506 1726.41 81.9261 1724.8 84.1989C1723.19 86.4716 1722.36 89.0758 1722.31 92.0114H1684.53C1684.58 83.1098 1687.01 75.25 1691.84 68.4318C1696.72 61.6136 1703.4 56.2633 1711.87 52.3807C1720.35 48.4981 1730.08 46.5568 1741.06 46.5568C1751.81 46.5568 1761.3 48.3797 1769.54 52.0256C1777.83 55.6714 1784.29 60.6903 1788.93 67.0824C1793.62 73.4271 1795.94 80.6951 1795.89 88.8864C1795.99 97.0303 1793.19 103.706 1787.51 108.915C1781.88 114.123 1774.73 117.201 1766.06 118.148V119.284C1777.8 120.562 1786.64 124.161 1792.55 130.08C1798.47 135.951 1801.38 143.337 1801.29 152.239C1801.34 160.761 1798.78 168.313 1793.62 174.895C1788.51 181.476 1781.38 186.637 1772.24 190.378C1763.15 194.118 1752.66 195.989 1740.78 195.989ZM1843.64 97.4091H1873.75C1886.01 97.4091 1896.71 99.3741 1905.85 103.304C1915.04 107.234 1922.16 112.774 1927.23 119.923C1932.34 127.073 1934.88 135.477 1934.83 145.136C1934.88 154.795 1932.34 163.295 1927.23 170.634C1922.16 177.973 1915.04 183.702 1905.85 187.821C1896.71 191.94 1886.01 194 1873.75 194H1819.49V48.5455H1858.98V163.034H1873.75C1878.53 163.034 1882.53 162.253 1885.75 160.69C1889.02 159.128 1891.48 156.973 1893.14 154.227C1894.84 151.481 1895.67 148.356 1895.63 144.852C1895.67 139.881 1893.83 135.761 1890.09 132.494C1886.35 129.18 1880.9 127.523 1873.75 127.523H1843.64V97.4091ZM1984.55 48.5455V194H1945.06V48.5455H1984.55ZM2105.48 48.5455V80.3636H2042.7V194H2003.21V48.5455H2105.48ZM2120.2 194V48.5455H2182.98C2193.78 48.5455 2203.22 50.6761 2211.32 54.9375C2219.42 59.1989 2225.72 65.1884 2230.21 72.9062C2234.71 80.6241 2236.96 89.6439 2236.96 99.9659C2236.96 110.383 2234.64 119.402 2230 127.026C2225.41 134.649 2218.94 140.52 2210.61 144.639C2202.33 148.759 2192.64 150.818 2181.56 150.818H2144.06V120.136H2173.61C2178.25 120.136 2182.2 119.331 2185.47 117.722C2188.78 116.064 2191.32 113.721 2193.07 110.69C2194.87 107.66 2195.77 104.085 2195.77 99.9659C2195.77 95.7992 2194.87 92.2481 2193.07 89.3125C2191.32 86.3295 2188.78 84.0568 2185.47 82.4943C2182.2 80.8845 2178.25 80.0795 2173.61 80.0795H2159.69V194H2120.2ZM2276.45 97.4091H2306.56C2318.83 97.4091 2329.53 99.3741 2338.67 103.304C2347.85 107.234 2354.98 112.774 2360.04 119.923C2365.16 127.073 2367.69 135.477 2367.64 145.136C2367.69 154.795 2365.16 163.295 2360.04 170.634C2354.98 177.973 2347.85 183.702 2338.67 187.821C2329.53 191.94 2318.83 194 2306.56 194H2252.3V48.5455H2291.79V163.034H2306.56C2311.35 163.034 2315.35 162.253 2318.57 160.69C2321.83 159.128 2324.29 156.973 2325.95 154.227C2327.66 151.481 2328.49 148.356 2328.44 144.852C2328.49 139.881 2326.64 135.761 2322.9 132.494C2319.16 129.18 2313.71 127.523 2306.56 127.523H2276.45V97.4091ZM2417.36 48.5455V194H2377.87V48.5455H2417.36ZM2445.68 48.5455H2484.03V163.602H2519.54V48.5455H2557.61V163.602H2592.27V48.5455H2630.34V194H2445.68V48.5455ZM2658.68 194V48.5455H2763.51V80.3636H2698.16V105.364H2758.11V137.182H2698.16V162.182H2763.22V194H2658.68Z" fill="white"/>
</g>
<defs>
<filter id="filter0_f_3_115" x="0.694336" y="4.3409" width="2773.81" height="208.648" filterUnits="userSpaceOnUse" color-interpolation-filters="sRGB">
<feFlood flood-opacity="0" result="BackgroundImageFix"/>
<feBlend mode="normal" in="SourceGraphic" in2="BackgroundImageFix" result="shape"/>
<feGaussianBlur stdDeviation="5.5" result="effect1_foregroundBlur_3_115"/>
</filter>
<filter id="filter1_d_3_115" x="11.6943" y="4.3409" width="2772.81" height="204.648" filterUnits="userSpaceOnUse" color-interpolation-filters="sRGB">
<feFlood flood-opacity="0" result="BackgroundImageFix"/>
<feColorMatrix in="SourceAlpha" type="matrix" values="0 0 0 0 0 0 0 0 0 0 0 0 0 0 0 0 0 0 127 0" result="hardAlpha"/>
<feOffset dx="12" dy="4"/>
<feGaussianBlur stdDeviation="4.5"/>
<feComposite in2="hardAlpha" operator="out"/>
<feColorMatrix type="matrix" values="0 0 0 0 0 0 0 0 0 0 0 0 0 0 0 0 0 0 0.25 0"/>
<feBlend mode="normal" in2="BackgroundImageFix" result="effect1_dropShadow_3_115"/>
<feBlend mode="normal" in="SourceGraphic" in2="effect1_dropShadow_3_115" result="shape"/>
</filter>
</defs>
</svg>
